<svg xmlns="http://www.w3.org/2000/svg" xmlns:xlink="http://www.w3.org/1999/xlink" viewBox="0 0 77.99 109.6"><defs><style>.cls-1{fill:url(#linear-gradient);}.cls-2{fill:url(#linear-gradient-2);}.cls-3{fill:url(#linear-gradient-3);}.cls-4{fill:url(#linear-gradient-4);}.cls-5{fill:url(#linear-gradient-5);}.cls-6{fill:url(#linear-gradient-6);}</style><linearGradient id="linear-gradient" x1="22.22" y1="9.16" x2="40.51" y2="9.16" gradientUnits="userSpaceOnUse"><stop offset="0" stop-color="#498a84"/><stop offset="1" stop-color="#213d49"/></linearGradient><linearGradient id="linear-gradient-2" x1="53.72" y1="29.59" x2="73.69" y2="29.59" xlink:href="#linear-gradient"/><linearGradient id="linear-gradient-3" x1="12.54" y1="69.13" x2="77.99" y2="69.13" xlink:href="#linear-gradient"/><linearGradient id="linear-gradient-4" x1="0" y1="97.17" x2="18.38" y2="97.17" xlink:href="#linear-gradient"/><linearGradient id="linear-gradient-5" x1="52.85" y1="38.29" x2="61.64" y2="38.29" xlink:href="#linear-gradient"/><linearGradient id="linear-gradient-6" x1="61.61" y1="31.59" x2="63.69" y2="31.59" xlink:href="#linear-gradient"/></defs><g id="Layer_2" data-name="Layer 2"><g id="Layer_1-2" data-name="Layer 1"><path class="cls-1" d="M40.5,9.3a8.76,8.76,0,0,1-9.16,9c-5.53-.11-9-3.43-9.11-9.11C22.13,4,25.83-.07,31.68,0A9,9,0,0,1,40.5,9.3Z"/><path class="cls-2" d="M63.69,30.32V29.17h-10v-.3h20l0,.32H71c-1,0-2.06,0-3.09,0-1.53-.07-3-.1-4.23,1.11Z"/><path class="cls-3" d="M52.88,43.72,52,45.64l26,37.1c-.46.05-.81.13-1.15.13-6.49,0-13,0-19.45,0a2.19,2.19,0,0,1-1.58-.67c-3.36-4.75-6.66-9.53-10-14.32-1.68-2.44-3.31-4.91-5-7.36a5,5,0,0,0-.83-.7c0,.64-.07,1.05-.07,1.46,0,9.44-.1,18.88,0,28.32.08,6-2.42,10.67-6.94,14.37a25.13,25.13,0,0,1-9.74,4.73,34.82,34.82,0,0,1-10.66.85c-.06,0-.11-.1-.12-.1a47.3,47.3,0,0,0,4.76-1.31c3.37-1.27,4.8-4,5.18-7.4a17.8,17.8,0,0,0,.06-2.19q0-34.12,0-68.25c0-1.35.39-1.64,1.67-1.62,4.67.07,9.35,0,14,0H40V58.42l.35.19c.94-1.16,1.87-2.32,2.81-3.47Q47.7,49.56,52.28,44c.13-.16.38-.22.57-.33Z"/><path class="cls-4" d="M18.35,97.22A9,9,0,0,1,9,106.38c-5.39-.27-8.94-3.92-9-9.22C0,92.31,3.48,88,9.36,88,14.05,87.89,18.76,92.35,18.35,97.22Z"/><path class="cls-5" d="M61.61,32.86c-.06.28,0,.62-.19.81q-4,4.89-8,9.73a2.23,2.23,0,0,1-.57.32l0,0c0-.24,0-.55.15-.71q4-4.94,8-9.82c.12-.14.39-.18.59-.26Z"/><path class="cls-6" d="M61.64,32.89a3.24,3.24,0,0,1,2-2.57l0,0a3.44,3.44,0,0,1-2,2.57Z"/></g></g></svg>